<svg version="1" xmlns="http://www.w3.org/2000/svg" width="346.667" height="346.667" viewBox="0 0 260.000000 260.000000"><path d="M56.3 59c-4.1 2.5-9.1 11.2-9.8 17-1 8.9-2.7 13.5-6.5 18.5-3.8 4.9-5.3 8.1-14.4 30.2C21.8 134 21 137 21 142.2c0 6.3 0 6.4-5.1 11.3-6.6 6.5-7.9 9.2-7.8 16.2 0 6.5 2.7 17.8 4.9 21.2 1.7 2.5 14.9 8.1 19.2 8.1 1.4 0 6-1.4 10.1-3 9.5-3.8 10.4-3.8 11.5.2.8 3.1 1.1 3.3 6 3.6 7.3.4 13.1-1.3 14.2-4.4 1.2-3.1 2.4-3 4.9.2 1.9 2.4 2.5 2.6 6.8 2 2.7-.4 11.1-.8 18.8-1 7.7-.2 19.8-1.1 26.8-2.1 11.8-1.5 13-1.6 14.6-.1 3.3 3 18.6 1.8 19.4-1.5.7-2.5 3.2-2.4 5.9.1 2.6 2.4 3.1 2.4 10 .6 4.3-1.1 8.8-1.1 23.1-.3 9.8.5 18.1.7 18.4.3.4-.3.1-5.2-.5-10.8-1-8.4-1-10.3.2-11.2 1.2-1 3.3-11.3 3.9-19.6.2-3 .6-3.6 3.9-4.5 2-.5 4-1.3 4.4-1.8 1.1-1 5.2-.9 5.9.3.3.5 3.1 1 6.2 1 4.6 0 5.6-.3 6-2 .3-1.1 1.1-2 1.8-2s1.5-1.9 1.8-4.5c.6-3.7.3-4.9-1.3-6.5-1.1-1.1-2-2.7-2-3.5 0-1.7-7.1-6.5-9.7-6.5-.9 0-2.9 1.1-4.3 2.5l-2.7 2.6-4.4-2.6c-2.4-1.3-5.6-2.5-7.1-2.5-1.6 0-2.8-.5-2.8-1.1 0-.7-1.9-3.3-4.3-5.9-2.3-2.6-5.5-6.6-7.1-8.9-1.8-2.7-4.5-5-7.5-6.4-3.8-1.8-4.7-2.8-4.9-5.2-.2-1.7-1.5-4.2-2.8-5.6l-2.4-2.6 1.5-7.2c2.4-11.6 2.2-12.6-3.2-16.1-2.7-1.7-5.9-3.3-7.3-3.7-2.7-.7-19.5 1.4-22.2 2.8-.9.5-3.6.4-6.5-.2-10-2.2-12.1-2.2-14.9 0l-2.6 2-4-2c-3-1.5-5-1.9-8.1-1.4-8.9 1.3-15.3 3-16.5 4.2-2.1 2.1-8.6 1.6-11.7-.9-2.2-1.7-4.5-2.3-11.4-2.6-6.4-.4-9.2-.9-11-2.3-3.4-2.7-14.4-2.6-18.8.1zm18.8 4.6l4.9 3.6-2.1 2.9c-2.2 3.1-2.4 3.1-7.6-.7-3.7-2.8-4.9-3-5.7-.8-1.1 2.8-.7 3.3 6.9 8.4l7.5 5-2.5 5.6c-1.4 3.1-2.5 5.8-2.5 6 0 .2-3.7.4-8.2.4-8.3 0-8.3-.1-12.6-4.1l-4.2-4 2.2-2.9c1.2-1.7 2.5-3 3-3 .4 0 2.6 1.6 4.8 3.6l4 3.6 2-2.3c1-1.3 1.9-2.6 1.9-2.9 0-.3-3.5-2.7-7.9-5.3-4.4-2.7-8-5.2-8-5.5 0-.4 1.3-2.7 3-5.2 3-4.6 3.8-5 14.4-5.8 1-.1 4 1.4 6.7 3.4zm112.4.6l5.7 3.3-.7 5.5c-.5 4.4-1.2 6-3.6 8.1l-3 2.6 4 3.3c2.3 1.7 4.1 3.5 4.1 3.8 0 .7-7.8 4.2-9.3 4.2-.4 0-2.2-2.4-4-5.3l-3.2-5.2-.3 5.2-.3 5.3h-4.5c-2.5 0-4.4-.5-4.4-1.1 0-.6-.5-5.2-1.1-10.4-.8-6.8-.8-10.7.1-14.8l1.1-5.5 5.7-1c3.1-.5 6.2-1 6.9-1.1.6 0 3.7 1.4 6.8 3.1zm-31 1.2l7 1.2-.3 3.5c-.2 1.9-.5 3.6-.7 3.8-.2.2-2.5-.4-5.1-1.3-5-1.7-5.8-1.5-6.9 2.1-.6 2.2-.4 2.3 4.5 2.3 5 0 5.1.1 4.8 2.7-.3 2.7-.5 2.8-5 2.6-4.8-.3-4.8-.3-4.8 2.8v3.1l6.4-.7 6.4-.6.4 3.8c.3 2.1.4 3.9.4 4-.1.1-5.4 0-11.8-.4l-11.6-.6-.6-4.6c-.5-3.8-.3-4.8 1.3-6.1 2.3-1.8 4.7-16 2.9-17.1-1.9-1.2.2-2.8 3-2.3 1.5.3 5.9 1.1 9.7 1.8zm-63.9-.8c2 .5 2 .8.8 7.7-.8 4-1.6 8.4-1.9 9.9-.4 2.7-.3 2.8 4 2.8h4.5V68.8l5.8.7c3.1.4 5.9.9 6.1 1.1.2.2-.2 4.1-.9 8.6-1 6.5-1.9 9.1-4.2 12l-3 3.8h-7.6c-7.5-.1-7.8-.2-12.1-3.9l-4.3-3.8 1.7-2.7c1.4-2 1.5-3 .6-3.9-1.7-1.7-1.3-6.8.7-10.9 1.7-3.2 1.7-3.6.3-4.6-1.3-.8-.6-1.1 2.9-1.1 2.5-.1 5.4.2 6.6.5zm52 38.4c4.6 2.8 8.1 5.6 7.9 6.3-.2.7-.9 3.8-1.5 6.9-1 5.2-1.5 6-5.1 8.2l-4.1 2.3 6.2 4.9c6.8 5.3 6.9 4.8-2.5 8.9l-5.4 2.4-4.8-7.7-4.8-7.7-.3 7.3-.3 7.2H126c-3.8 0-3.8 0-6-6.3-1.7-5-6.3-32.5-5.5-33.4.2-.3 18.4-4 20.4-4.2.7 0 5.1 2.2 9.7 4.9zm23.4-.5c2.9.8 4.4 1.7 4.3 2.6-.1.8-1.6 9-3.3 18.4-1.6 9.3-3 17.3-3 17.7 0 .3-2.3.8-5 1-3.5.2-5-.1-5-1 0-.6.4-1.2.9-1.2 1.8 0 2.1-3.3.5-5.1-1.5-1.6-1.6-3.8-.9-18.3l.7-16.5 3.2.6c1.7.4 5.1 1.2 7.6 1.8zm-63.8.4c.4.3 3.4 8 6.6 17.1 3.3 9.1 6.3 17.2 6.7 18.1.5 1.4-.4 1.9-4.7 2.9-2.9.6-6.1 1.4-7 1.7-1.2.3-1.8-.1-1.8-1.4 0-1-.5-3.4-1-5.5-1-3.6-1.1-3.6-5.3-3.1-7 .9-8.7 1.9-8.7 5 0 3.8-1.2 5.4-3 4.3-.9-.6-2.3-5.1-3.5-11.2l-2.1-10.3 3-9.8 3-9.8 8.5.6c4.7.4 8.9 1 9.3 1.4zm97.6.9c2.5.6 4.4 2.3 8.5 8.1l5.4 7.3-2.1 8.7-2.1 8.6-7.5 3.7c-4.1 2-8.2 3.7-9 3.8-.8 0-5.2-1.2-9.8-2.7l-8.2-2.7-2.1-5.6c-2-5.1-2-6.1-.9-13 1-6.2 1.9-8.3 5.3-12.8l4.2-5.3 7.6.6c4.1.4 8.9 1 10.7 1.3zm-15 61.4l-.3 19.2-5.9 1.5-5.8 1.5-3.2-3.4c-1.7-1.9-4.6-5.3-6.4-7.5l-3.2-4 .2 7.5.1 7.5-6.6 1.1-6.7 1.1-.5-3.1c-2-10.4-2-13.5-.1-23.9 1.7-9.2 1.8-11 .6-11.7-.8-.5-1.2-1.1-1-1.3.7-.5 8.5-2.7 9.7-2.7.6 0 3.9 4 7.4 9 3.4 4.9 6.5 9 6.7 9 .3 0 .2-4.3-.2-9.5l-.6-9.5h16l-.2 19.2zm-94.4-14c1.8 8.4 2.6 16.9 2.6 26v10.5l-6.2 1.7c-3.3.9-6.4 1.3-6.8.9-5.3-6.6-10.6-13-11.3-13.8-.6-.6-.8 1.8-.4 6.6l.5 7.6-6.5 1.2c-3.6.7-6.7 1.1-6.8.9-1.4-1.3-2.1-12.3-1.4-20l.9-9.2-3.1-3.9c-1.7-2.1-2.7-4.2-2.3-4.7 1.1-.9 14.4-5.3 14.8-4.9.2.2 2.9 4 6.1 8.4 3.2 4.4 6.2 8.4 6.7 9 .6.6.9-2.3.8-8-.2-5-.2-9.3-.1-9.8 0-.4 2.8-.7 6.1-.7 5.4 0 6 .2 6.4 2.2zm118.5.3c6.3.9 11.6 1.7 11.7 1.8.8.7-2 9.7-2.9 9.7-.7 0-4-.7-7.5-1.5-6.9-1.6-8.2-1.4-8.2 1.5 0 1.5 1.1 1.9 6 2.5 5 .6 6 1 5.6 2.4-1.7 6.2-1.4 5.9-5.4 5-5.6-1.3-6.2-1.1-6.2 1.6 0 2.4.2 2.5 7.4 2.5h7.4l.4 4.2c.3 2.4.4 4.4.2 4.6-.1.2-6.2 0-13.4-.4l-13.2-.7-1.4-3.3c-2.6-6.1-1.7-19.3 2.1-31.1.3-.8 1.5-1.1 3.2-.8 1.5.3 7.9 1.2 14.2 2zm-163 6.9l5.4 5.4-.9 10.2-.9 10.2-8.4 3.4c-4.7 1.9-9 3.4-9.7 3.4-.7 0-5-1.4-9.6-3.1l-8.4-3-1.8-9.9c-2-11.3-2.3-10.5 6.2-19.4l5.1-5.3 8.8 1.4c8.6 1.4 8.9 1.5 14.2 6.7zm92.9-5.7c2.3.3 4.5 1 4.8 1.4.4.7-4.4 29.9-5 30.5-.1.1-1.3.4-2.8.8l-2.8.6v-10.1c0-9.8-.1-10.1-2.1-9.6s-2.1.3-1.5-3.1c.3-2 .6-5.7.6-8.1 0-4 .2-4.3 2.3-3.7 1.2.3 4.1.9 6.5 1.3z"/><path d="M176 73.8c0 2.7.2 5.1.5 5.4.3.2 1.8.3 3.4 0 2.5-.3 3-.9 3.3-3.9.4-3 0-3.7-2.3-4.9-4.3-2.2-4.9-1.8-4.9 3.4zM129.2 115.2l.3 6.3 3.5-.3c4.3-.4 4.6-.8 5.3-5.5.6-4.1.2-4.4-6.6-6.1l-2.8-.7.3 6.3zM93.6 112.8c-.3.5-.8 3.2-1.2 6-.6 5.1-.6 5.2 1.9 5.2 1.4 0 3.3.3 4.3.7 1.5.6 1.6.1 1-4.5-.4-2.9-.9-5.9-1.2-6.7-.6-1.6-3.9-2.1-4.8-.7zM187.8 119.4l-2.2 4.6 3.6 3.6 3.6 3.6 4.2-2.3c3.7-2.1 4.1-2.7 3.6-5.3-.3-1.5-.6-3.5-.6-4.2 0-1.4-2.5-2.7-7.5-4-2.1-.5-2.7 0-4.7 4zM27.1 167.7l-2.2 4.6 3.4 3.5 3.4 3.4 4.2-2.1c4.3-2.2 4.5-2.8 3.5-8.1-.7-3.1-1.8-4-7.5-5.3-2.2-.6-2.8-.1-4.8 4z"/></svg>